<svg xmlns="http://www.w3.org/2000/svg" xmlns:xlink="http://www.w3.org/1999/xlink" fill="none" version="1.1" width="107" height="26" viewBox="0 0 107 26"><defs><linearGradient x1="-0.2553485333919525" y1="-0.10837176442146301" x2="1.0382676124572754" y2="1.1202044486999512" id="master_svg0_1807_02288"><stop offset="0%" stop-color="#AC8BFF" stop-opacity="1"/><stop offset="100%" stop-color="#8859FD" stop-opacity="1"/></linearGradient><linearGradient x1="-0.2553485333919525" y1="-0.10837176442146301" x2="1.0382676124572754" y2="1.1202044486999512" id="master_svg1_1807_02288"><stop offset="0%" stop-color="#AC8BFF" stop-opacity="1"/><stop offset="100%" stop-color="#8859FD" stop-opacity="1"/></linearGradient><linearGradient x1="-0.2553485333919525" y1="-0.10837176442146301" x2="1.0382676124572754" y2="1.1202044486999512" id="master_svg2_1807_02288"><stop offset="0%" stop-color="#AC8BFF" stop-opacity="1"/><stop offset="100%" stop-color="#8859FD" stop-opacity="1"/></linearGradient><linearGradient x1="-0.2553485333919525" y1="-0.10837176442146301" x2="1.0382676124572754" y2="1.1202044486999512" id="master_svg3_1807_02288"><stop offset="0%" stop-color="#AC8BFF" stop-opacity="1"/><stop offset="100%" stop-color="#8859FD" stop-opacity="1"/></linearGradient><linearGradient x1="-0.2553485333919525" y1="-0.10837176442146301" x2="1.0382676124572754" y2="1.1202044486999512" id="master_svg4_1807_02288"><stop offset="0%" stop-color="#AC8BFF" stop-opacity="1"/><stop offset="100%" stop-color="#8859FD" stop-opacity="1"/></linearGradient><linearGradient x1="-0.2553485333919525" y1="-0.10837176442146301" x2="1.0382676124572754" y2="1.1202044486999512" id="master_svg5_1807_02288"><stop offset="0%" stop-color="#AC8BFF" stop-opacity="1"/><stop offset="100%" stop-color="#8859FD" stop-opacity="1"/></linearGradient><linearGradient x1="-0.2553485333919525" y1="-0.10837176442146301" x2="1.0382676124572754" y2="1.1202044486999512" id="master_svg6_1807_02288"><stop offset="0%" stop-color="#AC8BFF" stop-opacity="1"/><stop offset="100%" stop-color="#8859FD" stop-opacity="1"/></linearGradient><linearGradient x1="-0.2553485333919525" y1="-0.10837176442146301" x2="1.0382676124572754" y2="1.1202044486999512" id="master_svg7_1807_02288"><stop offset="0%" stop-color="#AC8BFF" stop-opacity="1"/><stop offset="100%" stop-color="#8859FD" stop-opacity="1"/></linearGradient><linearGradient x1="0" y1="0.7337645888328552" x2="1" y2="0.7767427563667297" id="master_svg8_1807_01588"><stop offset="0%" stop-color="#AC8BFF" stop-opacity="1"/><stop offset="100%" stop-color="#8859FD" stop-opacity="1"/></linearGradient><linearGradient x1="0" y1="0.7337645888328552" x2="1" y2="0.7767427563667297" id="master_svg9_1807_01588"><stop offset="0%" stop-color="#AC8BFF" stop-opacity="1"/><stop offset="100%" stop-color="#8859FD" stop-opacity="1"/></linearGradient><linearGradient x1="0" y1="0.7337645888328552" x2="1" y2="0.7767427563667297" id="master_svga_1807_01588"><stop offset="0%" stop-color="#AC8BFF" stop-opacity="1"/><stop offset="100%" stop-color="#8859FD" stop-opacity="1"/></linearGradient><linearGradient x1="0" y1="0.7337645888328552" x2="1" y2="0.7767427563667297" id="master_svgb_1807_01588"><stop offset="0%" stop-color="#AC8BFF" stop-opacity="1"/><stop offset="100%" stop-color="#8859FD" stop-opacity="1"/></linearGradient><linearGradient x1="0" y1="0.7337645888328552" x2="1" y2="0.7767427563667297" id="master_svgc_1807_01588"><stop offset="0%" stop-color="#AC8BFF" stop-opacity="1"/><stop offset="100%" stop-color="#8859FD" stop-opacity="1"/></linearGradient></defs><g><g><g><path d="M0,25.821920066690446L0.430818,25.821920066690446C1.0755,25.821920066690446,1.5993,25.293720066690447,1.5993,24.643620066690445L1.5993,20.258760066690446L6.53356,20.258760066690446C7.17823,20.258760066690446,7.70203,19.730580066690443,7.70203,19.080500066690444L7.70203,18.752340066690444L1.5993,18.752340066690444L1.5993,14.711250066690445L6.8373,14.711250066690445C7.48198,14.711250066690445,8.00578,14.183059066690445,8.00578,13.532983066690445L8.00578,13.204820066690445L0,13.204820066690445L0,25.821920066690446Z" fill="url(#master_svg0_1807_02288)" fill-opacity="1"/></g><g><path d="M14.548641590881347,13.207887709140778L13.367761590881347,13.207887709140778L8.241341590881348,25.82188770914078L9.164965590881348,25.82188770914078C9.642271590881348,25.82188770914078,10.069991590881347,25.531187709140777,10.246661590881349,25.084287709140778L11.229171590881348,22.62148770914078L16.61285159088135,22.62148770914078L17.595361590881346,25.084287709140778C17.775131590881347,25.531187709140777,18.19975159088135,25.82188770914078,18.67704159088135,25.82188770914078L19.619241590881348,25.82188770914078L14.588931590881348,13.301648409140778L14.548641590881347,13.207887709140778ZM16.03326159088135,21.149437709140777L11.818061590881348,21.149437709140777L13.934961590881347,15.845697709140778L16.03326159088135,21.149437709140777Z" fill="url(#master_svg1_1807_02288)" fill-opacity="1"/></g><g><path d="M29.329708919067382,23.50281119183004C28.526958919067383,24.112311191830038,27.54754891906738,24.42171119183004,26.42245891906738,24.42171119183004C23.756968919067383,24.42171119183004,21.819838919067383,22.349591191830037,21.819838919067383,19.49301119183004C21.819838919067383,16.648931191830037,23.747668919067383,14.583071191830038,26.403868919067385,14.583071191830038C27.479358919067383,14.583071191830038,28.464978919067384,14.89873119183004,29.24912891906738,15.492551191830039C29.701638919067385,15.836341191830039,30.349388919067383,15.78321119183004,30.758488919067382,15.370661191830038L31.068488919067384,15.05812119183004L30.966188919067385,14.948731191830039C29.776028919067382,13.68921419183004,28.198428919067382,13.023511191830039,26.403868919067385,13.023511191830039C24.299368919067383,13.023511191830039,22.43351891906738,14.004875191830038,21.283638919067382,15.720701191830038C20.00048391906738,17.63030119183004,19.814519919067383,20.10558119183004,20.769135919067384,22.521491191830037C21.40761891906738,24.13421119183004,22.78064891906738,25.33741119183004,24.445038919067382,25.743711191830037C25.139298919067382,25.91251119183004,25.811878919067382,25.996911191830037,26.456548919067384,25.996911191830037C28.272808919067383,25.996911191830037,29.865908919067383,25.33431119183004,31.05918891906738,24.05291119183004L31.158388919067384,23.946611191830037L30.851488919067382,23.63101119183004C30.439288919067383,23.21221119183004,29.785318919067382,23.15591119183004,29.329708919067382,23.50281119183004Z" fill="url(#master_svg2_1807_02288)" fill-opacity="1"/></g><g><path d="M40.42559539306641,24.315520066690446L34.84975539306641,24.315520066690446L34.84975539306641,20.096250066690445L39.85530539306641,20.096250066690445C40.49998539306641,20.096250066690445,41.023785393066404,19.568060066690446,41.023785393066404,18.917980066690447L41.023785393066404,18.624200066690445L34.84975539306641,18.624200066690445L34.84975539306641,14.711250066690445L40.31711539306641,14.711250066690445C40.96179539306641,14.711250066690445,41.485595393066404,14.183059066690445,41.485595393066404,13.532983066690445L41.485595393066404,13.204820066690445L33.250465393066406,13.204820066690445L33.250465393066406,25.818820066690446L41.59097539306641,25.818820066690446L41.59097539306641,25.490620066690447C41.59097539306641,24.843720066690445,41.06717539306641,24.315520066690446,40.42559539306641,24.315520066690446Z" fill="url(#master_svg3_1807_02288)" fill-opacity="1"/></g><g><path d="M52.58766681274414,13.207946096690446C52.20023681274414,13.207946096690446,51.83760681274414,13.401718066690444,51.62064681274414,13.726756066690445L48.30737681274414,18.667960066690444L45.02820681274414,13.729882066690445C44.81124681274414,13.401719066690445,44.44861681274414,13.207947286690445,44.05808681274414,13.207947286690445L42.78732681274414,13.207947286690445L47.49842681274414,20.240010066690445L47.49842681274414,25.821920066690446L47.94784681274414,25.821920066690446C48.59251681274414,25.821920066690446,49.11632681274414,25.293720066690447,49.11632681274414,24.643620066690445L49.11632681274414,20.168130066690445L53.81192681274414,13.204820066690445L52.58766681274414,13.204820066690445L52.58766681274414,13.207946096690446Z" fill="url(#master_svg4_1807_02288)" fill-opacity="1"/></g><g><path d="M60.3269128125,13.029752276837826C56.7284928125,13.029752276837826,53.9111328125,15.870712276837825,53.9111328125,19.496132276837827C53.9111328125,23.143452276837827,56.7439928125,26.000052276837827,60.3641028125,26.000052276837827C63.9501328125,26.000052276837827,66.7613328125,23.149652276837827,66.7613328125,19.514882276837824C66.7613328125,15.880082276837825,63.9346328125,13.029752276837826,60.3269128125,13.029752276837826ZM65.0690328125,19.496132276837827C65.0690328125,22.352712276837828,63.0760928125,24.424852276837825,60.3269128125,24.424852276837825C57.5901328125,24.424852276837825,55.6034128125,22.352712276837828,55.6034128125,19.496132276837827C55.6034128125,16.652042276837825,57.5901328125,14.586182276837826,60.3269128125,14.586182276837826C63.0760828125,14.586182276837826,65.0690328125,16.652052276837825,65.0690328125,19.496132276837827Z" fill="url(#master_svg5_1807_02288)" fill-opacity="1"/></g><g><path d="M83.22844568066407,13.207887709140778L82.79762268066406,13.207887709140778L82.79762268066406,24.64358770914078C82.79762268066406,25.293687709140777,83.32142368066407,25.82188770914078,83.96609268066406,25.82188770914078L84.39692268066406,25.82188770914078L84.39692268066406,14.383027709140778C84.39382268066406,13.736073709140777,83.87002268066406,13.207887709140778,83.22844568066407,13.207887709140778Z" fill="url(#master_svg6_1807_02288)" fill-opacity="1"/></g><g><path d="M74.57800565185546,19.421175755615234C74.57800565185546,20.055625755615235,75.08940565185547,20.571315755615235,75.71858565185546,20.571315755615235L79.12795565185547,20.571315755615235C78.87065565185547,23.021605755615234,77.32097565185546,24.421805755615235,74.85385565185547,24.421805755615235C72.19455565185547,24.421805755615235,70.26362565185546,22.352765755615234,70.26362565185546,19.505565755615233C70.26362565185546,16.598975755615236,72.20385565185546,14.570615755615234,74.97782565185547,14.570615755615234C76.20519565185546,14.570615755615234,77.28379565185547,14.964405755615234,78.09273565185546,15.711375755615235C78.54215565185547,16.127045755615235,79.23335565185548,16.111415755615234,79.66725565185547,15.676995755615234L79.92445565185547,15.417585755615235L79.84695565185547,15.311325755615234C78.75295565185547,13.839278755615235,76.98004565185546,12.995430595615234,74.98712565185546,12.992305755615234C74.98402565185548,12.992305755615234,74.98402565185548,12.992305755615234,74.98092565185547,12.992305755615234C71.57157565185547,12.992305755615234,68.77590665185546,15.692615755615234,68.61783875185547,19.146145755615233C68.53105565185547,21.030735755615233,69.15403565185547,22.774695755615234,70.37520565185547,24.065505755615234C71.54677565185547,25.303105755615235,73.14917565185547,25.984405755615235,74.89104565185546,25.984405755615235C78.55764565185547,25.984405755615235,80.83575565185546,23.468505755615233,80.83575565185546,19.418055755615235L80.83575565185546,19.068015755615235L74.58110565185547,19.068015755615235L74.58110565185547,19.421175755615234L74.57800565185546,19.421175755615234Z" fill="url(#master_svg7_1807_02288)" fill-opacity="1"/></g></g><g style="opacity:0.30000001192092896;"><g><path d="M97.91966477203368,15.370509536743164C97.3524647720337,13.692209536743164,97.26876477203369,11.870109536743165,97.2625647720337,10.460609536743164C97.2470647720337,8.154079536743165,97.17886477203369,7.194599536743164,96.40405477203369,4.659929536743164C95.96703477203368,3.234759536743164,95.3099647720337,2.056499536743164,94.4979147720337,1.2501595367431642C93.67347477203369,0.4313095367431641,92.72815477203369,0.009385616743164063,91.6898547720337,0.0000095367431640625C91.68055477203369,0.0000095367431640625,91.67125477203369,0.0000095367431640625,91.65885477203369,0.0000095367431640625C90.7135347720337,0.0000095367431640625,89.69693477203369,0.4781905367431641,88.8693847720337,1.318909536743164C87.66681477203369,2.537809536743164,87.02214137203369,4.303639536743164,87.05003496803369,6.291369536743164C87.07792847203369,8.166589536743164,87.62962277203368,10.032409536743165,88.6896247720337,11.832609536743163C89.00886477203369,12.379609536743164,89.38389477203368,12.926509536743165,89.8023147720337,13.457809536743165C90.82821477203369,14.423609536743164,92.30663477203369,15.142409536743164,93.9524247720337,15.476809536743165C95.39053477203369,15.773709536743164,96.82866477203369,15.733109536743164,97.91966477203368,15.370509536743164Z" fill="url(#master_svg8_1807_01588)" fill-opacity="1"/></g><g><path d="M99.19351407775879,17.77403512817383C98.75339407775878,17.214595128173826,98.38766407775879,16.573895128173827,98.10252407775879,15.867560128173828C96.92784407775879,16.26135512817383,95.3812440777588,16.31136512817383,93.8501340777588,15.998825128173827C92.96060407775879,15.817554128173828,92.10206207775879,15.523770128173828,91.33341407775879,15.142475128173828C91.69604907775879,15.486265128173828,92.0772710777588,15.817554128173828,92.47399407775879,16.133216128173828C94.3522340777588,17.614635128173827,96.24598407775879,18.61475512817383,98.09322407775879,19.11168512817383C99.33918407775879,19.446105128173826,100.55726407775879,19.54298512817383,101.72261407775879,19.402345128173828C100.93848407775879,19.22420512817383,99.99005407775878,18.78977512817383,99.19351407775879,17.77403512817383Z" fill="url(#master_svg9_1807_01588)" fill-opacity="1"/></g><g><path d="M106.61659879425049,13.71724905090332C106.2260687942505,13.04529305090332,105.39231879425049,12.35146305090332,103.61945879425049,12.864022050903321C102.68653879425048,13.13280405090332,101.98916879425049,13.61411005090332,101.18022879425048,14.17354905090332C100.47045879425049,14.66422905090332,99.66770879425049,15.21741905090332,98.59531879425049,15.67371905090332C98.86186379425048,16.33004905090332,99.20280079425049,16.92386905090332,99.60881879425048,17.442679050903322C100.27209879425048,18.28964905090332,101.13063879425049,18.78970905090332,102.16272879425048,18.936599050903318C102.98097879425049,19.05223905090332,103.72483879425049,18.90847905090332,104.11535879425048,18.74907905090332C104.84371879425049,18.43341905090332,105.44500879425048,18.05837905090332,105.90061879425049,17.63332905090332C106.35623879425049,17.20827905090332,106.67236879425049,16.73009905090332,106.84593879425049,16.20815905090332C107.17138879425049,15.22366905090332,106.92653879425049,14.25167905090332,106.61659879425049,13.71724905090332Z" fill="url(#master_svga_1807_01588)" fill-opacity="1"/></g><g><path d="M97.78331978088379,10.457504869699479C97.78950978088379,11.320104869699477,97.82360978088379,12.051504869699478,97.89488978088379,12.710904869699478C98.2265297808838,11.482704869699479,98.94868978088378,10.291904869699477,99.59336978088379,9.226164869699478C100.06447978088379,8.454194869699478,100.54488978088379,7.6634748696994786,100.82383978088379,6.938394869699478C101.27014978088378,5.772634869699478,101.35073978088379,4.509984869699478,101.05009978088378,3.378604869699478C100.72465978088378,2.1659648696994784,99.99938978088379,1.2377308696994782,98.95179978088379,0.7001688696994781C97.21612978088379,-0.19368513030052187,95.55794078088378,0.6376618696994781,94.97525978088379,1.0002038696994782C95.79970378088379,1.8628048696994781,96.4629697808838,3.0754448696994783,96.89998978088379,4.506864869699478C97.69962978088378,7.116544869699478,97.77091978088379,8.097904869699478,97.78331978088379,10.457504869699479Z" fill="url(#master_svgb_1807_01588)" fill-opacity="1"/></g><g><path d="M85.61811900146485,10.879433061523438C84.81226900146484,9.463643061523438,84.73788900146485,8.976083061523438,84.64180900146485,8.363513061523438L84.62010900146484,8.222872061523438C84.54261900146484,7.750942061523437,84.31326900146485,7.522791061523438,84.13349900146484,7.413403061523438C83.99401900146485,7.329017961523437,83.83285500146485,7.2852630615234375,83.66239100146484,7.2852630615234375C83.55391000146484,7.2852630615234375,83.44233600146484,7.304015061523438,83.33695700146484,7.338394261523438C83.11069600146485,7.413403061523438,82.95263300146485,7.5696710615234375,82.88134320146484,7.791572061523437C82.72947500146485,8.260377061523437,82.95572600146484,8.966713061523437,83.52292300146485,9.779303061523438C84.28847900146485,10.879433061523438,86.13262900146485,12.957793061523438,87.60793900146484,13.992293061523437C87.63893900146485,14.014173061523437,87.67302900146484,14.023543061523437,87.70712900146485,14.020423061523438C87.74431900146485,14.017293061523437,87.78150900146484,13.998543061523439,87.80630900146484,13.967293061523439C87.85900900146484,13.907913061523438,87.85900900146484,13.823523061523439,87.80320900146485,13.764143061523438C87.25150900146484,13.151573061523438,86.23490900146484,11.970183061523437,85.61811900146485,10.879433061523438Z" fill="url(#master_svgc_1807_01588)" fill-opacity="1"/></g></g></g></svg>