<svg viewBox="0 0 62.3 77.3" xmlns="http://www.w3.org/2000/svg" overflow="hidden"><path d="M2.4 11.9h56.9v62.6H2.4z" fill="#fff"/><g fill="#e61523"><path d="M27.6 50.2h-.2c-2.5.1-3.1 2.8-3.1 6.7 0 2.9.7 6 3.2 6.1 2.5 0 3.1-3.2 3.2-6.1.1-3.8-.5-6.5-3.1-6.7z"/><path d="M43.9 9.3V3.6L40.3 0H22.2l-3.7 3.6v5.7H0v68h62.3v-68zm6.8 15.4h4v16.4h-4zm4 23.3v2.7h-8.5V48zM22.2 3.6h18.1v5.7H22.2zm9.9 21v16.5h-3.8V24.6zm-24.7.2h2.9l6.2 11.8 6.2-11.8h2.7V41h-3.6v-9l-5 9.1h-2.1l-4.6-9.2V41H7.4zm9.8 39.3c-2.6 1.9-7.2 1.5-9.8.5l.5-2.6c1.3.6 3.4.9 5.2.8 2.2-.2 3.1-1.9 2.1-3.1-1-1.4-4.7-1.8-6.7-3.9-1.7-1.8-1.2-5 .5-6.4 2.4-2 7.2-1.4 9.3-.8l-.5 2.4c-.9-.5-6.6-1.4-7 1.1-.3 1.7 2.3 2.5 3.6 3.1 1.7.7 3.3 1.7 4.1 2.9s1.1 4.3-1.3 6zm10.4 1.3c-4.9 0-6.6-3.7-6.8-8.5-.1-3.3.7-5.8 2.4-7.4 1.1-1.1 2.5-1.6 4.4-1.6 1.9 0 3.3.4 4.4 1.6 1.7 1.6 2.5 4.1 2.4 7.4-.2 4.7-2 8.5-6.8 8.5zM35 24.7h2.1l8.1 9.8v-9.8h2.7v16.4h-1.6l-8.6-10v10H35zm6.1 25c0 1.2-.9 2.1-2.1 2.1-1.1 0-2.1-.9-2.1-2.1s.9-2.1 2.1-2.1c1.1 0 2.1.9 2.1 2.1zm4.6 15.7c-5.1 0-9.3-4.2-9.3-9.5v-.4h2.5v.4c0 3.8 3 6.9 6.8 6.9s6.8-3.1 6.8-6.9v-.4H55v.4c0 5.2-4.2 9.5-9.3 9.5z"/></g></svg>
