<svg xmlns="http://www.w3.org/2000/svg" width="918" height="204" fill="none" viewBox="0 0 918 204"><path fill="#8C50FB" d="M189.216 1.15843C227.799 1.15843 259.042 32.4084 259.042 71.0989C259.042 109.789 224.823 142.428 192.291 165.643C158.965 189.452 135.161 202.944 128.714 202.944C122.267 202.944 119.192 198.678 119.192 193.42C118.2 195.801 116.316 115.94 119.192 71.0989C121.572 33.2021 150.534 1.25764 189.117 1.25764L189.216 1.15843Z"/><path fill="#8C50FB" d="M97.669 88.0632C99.6527 119.313 98.6609 172.885 97.9666 171.198C97.9666 174.869 96.3796 180.424 91.0237 179.928C86.6596 179.531 69.9966 170.504 46.7875 153.936C24.0743 137.766 0.27002 115.246 0.27002 88.0632C0.27002 60.8806 22.0906 39.3529 48.9695 39.3529C75.8485 39.3529 95.9829 61.6743 97.669 88.0632Z"/><path fill="#8C50FB" d="M400.776 61.1783C393.635 56.3171 385.304 53.837 375.881 53.837C366.459 53.837 359.218 56.0195 352.474 60.4838C349.994 62.0711 347.713 64.0552 345.63 66.2378L342.555 56.9124H313.792V203.043H352.672V159.69C359.218 163.361 366.756 165.246 375.385 165.246C384.014 165.246 393.04 162.865 400.28 158.202C407.719 153.341 413.472 146.694 417.638 138.262C421.903 129.829 424.085 120.305 424.085 109.69C424.085 99.0751 422.002 89.4521 417.836 81.1187C413.67 72.6862 407.918 66.0394 400.677 61.3767L400.776 61.1783ZM379.749 122.19C376.476 125.464 372.509 127.15 367.946 127.15C363.384 127.15 359.317 125.464 355.945 122.19C352.474 118.718 350.787 114.551 350.787 109.492C350.787 104.432 352.474 100.266 355.945 96.7933C359.417 93.3211 363.384 91.6346 367.946 91.6346C372.509 91.6346 376.476 93.3211 379.749 96.7933C383.022 100.266 384.709 104.432 384.709 109.492C384.709 114.551 383.022 118.718 379.749 122.19Z"/><path fill="#8C50FB" d="M513.946 59.3926C506.904 55.6227 498.275 53.837 487.959 53.837C477.644 53.837 470.8 55.0275 462.866 57.3092C455.03 59.4918 447.79 62.1703 441.144 65.4441L452.352 92.5275C457.906 89.6505 463.262 87.7656 468.222 86.7735C473.379 85.7814 477.942 85.2854 481.711 85.2854C485.48 85.2854 490.042 86.3767 492.423 88.7576C495.001 90.9402 496.291 93.7179 496.291 97.091V101.059C489.844 96.9918 481.711 94.9084 471.991 94.9084C462.271 94.9084 459.196 96.2973 453.344 98.9759C447.591 101.555 442.93 105.424 439.161 110.583C435.59 115.742 433.805 122.19 433.805 129.928C433.805 137.666 435.491 142.627 438.764 147.984C442.037 153.341 446.6 157.408 452.253 160.484C458.006 163.46 464.453 165.047 471.594 165.047C483.199 165.047 492.125 162.369 498.473 157.111C498.969 156.714 499.366 156.317 499.861 155.821L501.944 162.17H535.469V99.4719C535.469 90.0473 533.683 81.9124 530.113 75.1664C526.542 68.3211 521.186 63.0632 514.045 59.4917L513.946 59.3926ZM486.075 139.75C482.504 139.75 479.727 138.857 477.743 136.972C475.859 134.988 474.966 132.607 474.966 129.928C474.966 127.25 475.859 124.869 477.743 123.083C479.727 121.099 482.504 120.107 486.075 120.107C489.645 120.107 492.026 121.099 494.01 123.083C495.993 124.968 496.985 127.25 496.985 129.928C496.985 132.607 495.993 134.988 494.01 136.972C492.026 138.857 489.348 139.75 486.075 139.75Z"/><path fill="#8C50FB" d="M593.095 56.8132H554.016V162.071H593.095V56.8132Z"/><path fill="#8C50FB" d="M573.555 0.960007C567.009 0.960007 561.653 2.94414 557.686 7.0116C553.719 10.9799 551.636 16.4362 551.636 23.083C551.636 29.7299 553.619 34.7894 557.686 38.7576C561.653 42.6267 567.009 44.5116 573.555 44.5116C580.102 44.5116 585.557 42.6267 589.425 38.7576C593.392 34.7894 595.475 29.5314 595.475 23.083C595.475 16.6346 593.492 10.9799 589.425 7.0116C585.557 3.04335 580.3 0.960007 573.555 0.960007Z"/><path fill="#8C50FB" d="M670.955 53.837C666.095 53.837 661.433 55.0275 656.97 57.5076C652.506 59.9878 648.539 62.7656 645.167 66.1386C644.77 66.5354 644.274 66.9322 643.877 67.4283L640.207 56.9124H611.642V162.17H650.523V97.091C651.118 96.6941 651.812 96.2973 652.407 95.9997C658.259 93.0235 665.599 91.4362 674.327 91.4362H681.666V56.0195C680.575 55.3251 678.988 54.8291 677.203 54.5314C675.517 54.1346 673.434 53.9362 670.955 53.9362V53.837Z"/><path fill="#8C50FB" d="M772.222 61.5751C764.386 56.4164 754.865 53.837 743.657 53.837C732.449 53.837 723.522 56.3171 715.488 61.1783C707.454 65.9402 701.206 72.4878 696.842 80.9203C692.378 89.2537 690.196 98.7775 690.196 109.492C690.196 120.206 692.378 130.325 696.842 138.46C701.305 146.595 707.554 152.944 715.488 157.408C723.522 161.873 732.846 164.055 743.657 164.055C754.468 164.055 765.18 161.575 773.908 156.714C782.834 151.853 789.381 145.404 793.646 137.369L768.552 124.273C766.271 127.448 763.394 130.027 759.923 132.21C756.65 134.194 752.286 135.186 746.831 135.186C741.375 135.186 734.036 133.5 729.87 130.027C727.093 127.647 725.308 124.571 724.514 120.801H796.324C796.621 119.71 796.819 118.023 796.919 115.841C797.018 113.658 797.117 111.277 797.117 108.797C797.117 98.8767 794.935 89.8489 790.67 81.5156C786.405 73.1822 780.256 66.5354 772.222 61.5751ZM744.053 83.4997C750.798 83.4997 755.757 85.1862 758.832 88.6584C760.716 90.6426 762.105 93.0235 762.898 95.8013H724.911C725.803 93.1227 727.192 90.841 729.176 88.956C732.945 85.3846 737.805 83.5989 743.954 83.5989L744.053 83.4997Z"/><path fill="#8C50FB" d="M878.845 15.841V59.4918C872.398 55.7219 864.761 53.837 856.032 53.837C847.304 53.837 838.378 56.3172 830.939 61.1783C823.599 65.9402 817.847 72.4878 813.582 80.9203C809.416 89.2537 807.333 98.7775 807.333 109.492C807.333 120.206 809.416 129.631 813.582 138.063C817.747 146.496 823.5 153.143 830.74 158.004C838.08 162.766 846.312 165.047 855.636 165.047C864.959 165.047 872.299 162.865 879.043 158.4C881.523 156.714 883.804 154.829 885.887 152.647L888.962 161.972H917.725V15.6426H878.845V15.841ZM863.571 127.15C859.008 127.15 855.041 125.464 851.768 122.19C848.494 118.718 846.808 114.551 846.808 109.492C846.808 104.432 848.494 100.266 851.768 96.7934C855.041 93.3211 859.008 91.6346 863.571 91.6346C868.133 91.6346 872.299 93.3211 875.572 96.7934C879.043 100.266 880.729 104.432 880.729 109.492C880.729 114.551 879.043 118.718 875.572 122.19C872.299 125.464 868.232 127.15 863.571 127.15Z"/></svg>