<svg width="152" height="38" viewBox="0 0 152 38" fill="none" xmlns="http://www.w3.org/2000/svg">
<path d="M1.27883 9.03827C1.27883 4.76418 4.74367 1.29934 9.01776 1.29934H28.9414C33.2155 1.29934 36.6803 4.76418 36.6803 9.03827V28.9619C36.6803 33.236 33.2155 36.7008 28.9414 36.7008H9.01776C4.74367 36.7008 1.27883 33.236 1.27883 28.9619V9.03827Z" fill="white" stroke="#E2E2E2" stroke-width="0.82329"/>
<rect width="29.6384" height="29.6384" transform="translate(4.16016 4.18066)" fill="white"/>
<path fill-rule="evenodd" clip-rule="evenodd" d="M17.0034 9.5658C17.1156 9.4524 17.1672 9.29502 17.186 9.12277C17.2964 9.25815 17.4254 9.37173 17.5731 9.45423C17.5754 9.45552 17.5775 9.45835 17.5795 9.46201C17.6321 9.62355 17.7326 9.97959 17.7065 10.2775C17.6948 10.4116 17.6432 10.5876 17.5888 10.7435C17.4231 10.8131 17.2197 10.915 17.2197 10.915L16.9209 11.1747C16.5755 11.3473 16.215 11.6347 16.0509 12.203C15.7651 13.1929 15.3972 14.1529 15.2441 14.5503C15.1571 14.7758 15.0448 14.9445 14.8714 15.2048L14.8714 15.2048C14.7394 15.4031 14.5719 15.6546 14.3532 16.0249C13.9268 16.7487 13.581 18.112 13.4207 18.7441C13.3908 18.8621 13.3673 18.9546 13.351 19.0127C13.2752 19.2889 13.2557 19.3393 13.2152 19.4443C13.2015 19.4799 13.1854 19.5217 13.1638 19.5807C13.1318 19.6682 13.0528 19.8023 12.9668 19.9483C12.8236 20.1915 12.661 20.4674 12.6647 20.6146C12.6686 20.7704 12.6808 21.0153 12.6887 21.1741C12.6928 21.2555 12.6957 21.3142 12.6958 21.3268C12.6939 21.364 12.713 21.5654 12.7955 21.6885C12.8273 21.736 12.877 21.8151 12.9288 21.8973L12.9289 21.8975C13.0115 22.0289 13.0991 22.1683 13.1269 22.1998C13.1722 22.2511 13.1892 22.1868 13.1854 22.0864C13.1839 21.9838 13.1022 21.8444 13.0765 21.8128C13.0596 21.7883 13.0227 21.6662 12.9991 21.588C12.9901 21.5583 12.983 21.5349 12.9797 21.5258C12.9714 21.5026 12.9828 21.3792 12.9934 21.2635C12.998 21.2135 13.0025 21.1649 13.0052 21.1264C13.0142 20.9987 13.1617 20.7525 13.2086 20.7293C13.2531 20.706 13.2776 20.8052 13.2718 20.9586C13.2693 21.0266 13.2608 21.1144 13.2523 21.2014L13.2523 21.2014C13.2417 21.3109 13.2312 21.4192 13.2328 21.4855C13.2357 21.6044 13.3343 21.6818 13.4066 21.5645C13.4513 21.4882 13.4826 21.3489 13.5191 21.1866L13.5191 21.1866C13.54 21.094 13.5625 20.9939 13.5901 20.8938C13.629 20.7568 13.6608 20.6915 13.6914 20.6287C13.7222 20.5653 13.7518 20.5046 13.7861 20.3752C13.8143 20.2687 13.8145 20.1174 13.8146 19.9485C13.8148 19.709 13.8151 19.4342 13.8955 19.202C13.9967 18.9085 14.2401 18.5173 14.665 17.8346C14.8165 17.5912 14.991 17.3107 15.1904 16.9844C15.9491 15.7428 16.1163 15.3206 16.3373 14.7171C16.4774 14.3347 16.8433 13.8658 17.0926 13.5737C17.2732 13.864 17.9563 14.979 17.9563 15.4078C17.9564 15.8506 17.71 16.3854 17.2772 16.6557C16.8444 16.926 16.1975 17.533 16.1097 18.4186C16.065 18.8685 16.202 19.3184 16.4407 19.6993C16.2804 20.3453 16.0329 21.3246 15.8912 21.7947C15.7919 22.1243 15.7284 22.574 15.6686 22.9978C15.5948 23.5202 15.5266 24.0033 15.4037 24.174C15.3315 24.2744 15.1768 24.4112 14.9812 24.5843C14.574 24.9446 13.9892 25.4621 13.6005 26.1348C13.2502 26.7409 12.7817 27.7616 12.2339 29.2281C12.222 29.2601 12.1675 29.3738 12.098 29.5158C12.0783 29.4582 12.0048 29.429 11.958 29.4348C11.7842 29.4559 11.6493 29.5948 11.5504 29.6965C11.5311 29.7163 11.5132 29.7348 11.4966 29.7507C11.3903 29.8526 11.1447 30.1679 11.1437 30.1925C11.1132 30.2123 11.0933 30.2259 11.0933 30.2259C10.9556 30.2989 10.7208 30.6029 10.7483 30.7881C10.7758 30.9734 11.0637 31.1595 11.5089 31.3938C11.653 31.4696 11.7937 31.5211 11.8926 31.5562C11.9815 31.5877 12.0605 31.5964 12.136 31.6048C12.2319 31.6154 12.3221 31.6254 12.4196 31.6806L12.4465 31.7331C12.4465 31.7331 12.4559 31.7261 12.4729 31.7129C12.716 31.8645 12.8774 32.0143 13.0065 32.1785L13.0148 32.189C13.1293 32.3348 13.4117 32.6944 13.7031 32.7191L13.7111 32.7198L13.7147 32.7207C13.8402 32.726 13.9435 32.7316 14.0308 32.7364C14.2759 32.7498 14.3949 32.7564 14.5252 32.7278C15.0983 32.6175 15.1005 32.0348 14.7564 31.9559C14.6318 31.9273 14.2388 31.7589 14.1427 31.6835C14.0466 31.608 13.3731 30.251 13.3731 30.251C13.3731 30.251 13.2898 29.9531 13.2769 29.9276C13.2516 29.879 13.2186 29.846 13.1821 29.8262C13.2253 29.7323 13.2652 29.6556 13.2831 29.6257C13.8852 28.6158 15.2905 26.9164 15.5984 26.6082C15.7936 26.4128 16.0642 26.2307 16.3087 26.0661L16.3087 26.0661C16.5677 25.8918 16.7975 25.7372 16.8775 25.6072C16.9538 25.4832 17.0488 25.2402 17.1439 24.997L17.1439 24.9969C17.2425 24.7447 17.3412 24.4921 17.4193 24.372C17.498 24.2508 18.1515 23.062 18.774 21.6758C18.9181 21.7944 19.0126 21.8727 19.0126 21.8727C19.0126 21.8727 20.0555 23.2878 20.3321 23.5555C20.6086 23.8232 21.7337 25.0064 21.8803 25.3601C21.9254 25.4686 21.9188 25.6424 21.9101 25.8717C21.8905 26.3894 21.8602 27.1903 22.3887 28.1631C22.8396 29.4734 23.1884 30.3486 23.3628 30.7862L23.3631 30.787C23.3178 30.8043 23.2775 30.8332 23.2518 30.8622C23.1505 30.9768 23.1818 31.1088 23.2155 31.2512C23.2333 31.3264 23.2518 31.4046 23.2518 31.4847C23.2518 31.718 23.2551 31.9894 23.3382 32.1488L23.3386 32.1494C23.3036 32.4418 23.4998 32.6786 23.5246 32.7014C23.5494 32.7241 23.687 32.8289 24.1766 32.6526C24.4464 32.5555 24.5538 32.466 24.652 32.3842C24.7346 32.3155 24.8107 32.2521 24.9714 32.1942C25.201 32.1116 25.4122 32.0725 25.6386 32.0306C25.9009 31.9821 26.1839 31.9297 26.54 31.8014C27.7125 31.3793 27.3692 30.6828 27.3692 30.6828C27.3692 30.6828 27.3246 30.6276 27.2938 30.5992L27.2937 30.5979C27.2937 30.5979 27.0834 30.3359 26.5204 30.5385C26.4801 30.5531 26.428 30.5649 26.3801 30.5726L24.8433 30.3448C24.8433 30.3448 24.6359 30.1912 24.5242 30.1705C24.4634 30.1583 24.406 30.1642 24.3557 30.1823C24.2012 29.4034 24.0356 28.2191 23.9192 27.3876L23.9192 27.3876C23.8705 27.0393 23.8304 26.7529 23.8035 26.5842C23.7585 26.3024 23.7542 25.9398 23.7502 25.6033C23.7455 25.2015 23.7412 24.837 23.6685 24.692C23.6156 24.5866 23.5016 24.4277 23.3759 24.2525L23.3759 24.2525C23.184 23.9849 22.9647 23.6792 22.8939 23.4677C22.7768 23.1176 21.2924 19.7713 20.0161 17.8906C20.0675 17.7305 20.1516 17.2177 20.2512 16.6104L20.2512 16.6104L20.2512 16.6104C20.2844 16.4079 20.3193 16.1948 20.3553 15.9808C20.4464 16.154 20.532 16.2811 20.6074 16.3416C20.9922 16.651 22.1615 17.1332 22.8277 17.4078C23.0702 17.5078 23.246 17.5803 23.293 17.607C23.3721 17.6509 23.4336 17.7604 23.5003 17.8792C23.5836 18.0273 23.6749 18.1898 23.8182 18.2572C24.0764 18.3787 24.4594 18.543 24.4594 18.543C24.4594 18.543 24.5604 18.6407 24.5514 18.654C24.5472 18.6601 24.5356 18.7019 24.5223 18.7497C24.5072 18.804 24.4899 18.866 24.4789 18.8924L24.4777 18.895C24.4645 18.9241 24.4622 18.9292 24.4584 18.9325C24.4576 18.9332 24.4567 18.9338 24.4557 18.9346C24.454 18.9358 24.4519 18.9374 24.4488 18.9402C24.4344 18.9532 24.4101 19.019 24.4505 19.0291C24.4922 19.0406 24.5148 19.028 24.5148 19.028L24.62 18.9592C24.62 18.9592 24.5851 19.0191 24.625 19.0141C24.6547 19.0104 24.7148 18.9407 24.7513 18.8984L24.7513 18.8984L24.7513 18.8984C24.7638 18.8839 24.7736 18.8726 24.7784 18.8683C24.7847 18.8626 24.7922 18.8602 24.801 18.8574C24.8183 18.852 24.8405 18.845 24.868 18.8083L24.8793 18.7933C24.9306 18.7255 25.0518 18.5656 25.0439 18.4845C25.0366 18.398 24.9157 17.7142 24.8257 17.6142C24.7702 17.5526 24.6508 17.5208 24.5186 17.4857C24.4334 17.463 24.3429 17.4389 24.2608 17.4045L24.2333 17.3933C24.0238 17.3083 23.7225 17.1861 22.9656 16.462C22.3397 15.8632 21.7827 15.5901 21.4946 15.4488L21.4946 15.4488C21.4188 15.4116 21.3616 15.3836 21.3268 15.3612C21.2396 15.3048 21.1849 15.0256 21.1152 14.6699C21.0663 14.4206 21.0101 14.1337 20.9302 13.8597C21.2594 13.2676 21.4018 12.8812 21.297 12.6385C21.2354 12.4959 21.1207 12.3912 21.0097 12.2899C20.8925 12.1829 20.7793 12.0796 20.7369 11.9391C20.6946 11.7991 20.6813 11.6904 20.6667 11.5701C20.6527 11.4553 20.6374 11.3301 20.5944 11.1572C20.5064 10.7144 19.9741 10.5372 19.4452 10.5614C19.3383 10.5662 19.2438 10.5716 19.1573 10.5795C19.146 10.5189 19.1353 10.4572 19.1264 10.3977C19.0835 9.99705 19.248 9.83617 19.344 9.82341C19.3897 9.81734 19.5806 9.77817 19.7905 9.72904C20.0969 9.71359 20.3906 9.66772 20.4415 9.54814C20.4524 9.52263 20.4523 9.4713 20.4521 9.41095C20.4519 9.30218 20.4515 9.16411 20.5153 9.09511C20.5728 9.03295 20.5432 8.97972 20.5154 8.92967C20.4952 8.89335 20.4759 8.8587 20.4916 8.82353L20.4968 8.81168C20.5328 8.73107 20.5725 8.6422 20.5263 8.58104C20.4966 8.55268 20.488 8.5077 20.5051 8.47001C20.5051 8.47001 20.6829 8.37578 20.6779 8.31806M17.0034 9.5658C16.8256 9.74552 16.6391 9.73432 16.3594 9.71753L17.0034 9.5658ZM16.3594 9.71753C16.0531 9.69915 15.6351 9.67406 14.9945 9.88549L16.3594 9.71753ZM14.9945 9.88549C13.7687 10.29 14.3471 11.4444 14.3471 11.4444L14.9945 9.88549ZM14.3471 11.4444C14.3471 11.4444 13.7397 11.2201 13.6791 10.042L14.3471 11.4444ZM13.6791 10.042C13.6283 9.05584 14.3435 8.73379 14.9723 8.45061L13.6791 10.042ZM14.9723 8.45061C15.0946 8.39551 15.2137 8.34187 15.3233 8.28511L14.9723 8.45061ZM15.3233 8.28511C15.6791 8.10069 15.8571 7.7016 16.0511 7.26659L15.3233 8.28511ZM16.0511 7.26659C16.2237 6.87955 16.409 6.46409 16.7435 6.14607L16.0511 7.26659ZM16.7435 6.14607C17.3043 5.61297 17.7742 5.87898 17.9474 6.01478L16.7435 6.14607ZM17.9474 6.01478C18.2915 5.92017 18.5896 5.92349 18.8356 5.96821L17.9474 6.01478ZM18.8356 5.96821L18.8398 5.96861L18.8356 5.96821ZM18.8398 5.96861C19.6702 6.10101 20.1251 6.53412 20.2729 7.07756L18.8398 5.96861ZM20.2729 7.07756C20.3253 7.34497 20.36 7.61566 20.3768 7.88774L20.2729 7.07756ZM20.3768 7.88774C20.3967 7.96433 20.4908 8.07534 20.5686 8.1671L20.3768 7.88774Z" fill="url(#paint0_linear_1994_17612)"/>
<path d="M80.5541 9.54759L74.0481 30.5H70.5271L65.9483 16.184C65.8227 15.8362 65.7068 15.4112 65.6005 14.9089C65.5426 15.1504 65.4846 15.3774 65.4266 15.5899C65.3687 15.8024 65.3059 16.0004 65.2383 16.184L60.616 30.5H57.0805L50.589 9.54759H53.8492C54.1873 9.54759 54.4674 9.6297 54.6896 9.79392C54.9215 9.94848 55.076 10.161 55.1533 10.4315L58.7178 22.9652C58.7951 23.2744 58.8675 23.6125 58.9352 23.9795C59.0124 24.337 59.0897 24.7137 59.167 25.1098C59.2443 24.704 59.3264 24.3225 59.4133 23.9651C59.5099 23.6076 59.6114 23.2744 59.7176 22.9652L63.8327 10.4315C63.91 10.2093 64.0598 10.0064 64.2819 9.8229C64.5138 9.63936 64.7939 9.54759 65.1224 9.54759H66.2671C66.6052 9.54759 66.8805 9.6297 67.093 9.79392C67.3055 9.95814 67.4649 10.1707 67.5711 10.4315L71.6718 22.9652C71.8746 23.5642 72.0582 24.2548 72.2224 25.0373C72.348 24.2742 72.4881 23.5835 72.6426 22.9652L76.2071 10.4315C76.2651 10.19 76.41 9.98229 76.6418 9.80841C76.8833 9.63453 77.1683 9.54759 77.4967 9.54759H80.5541ZM88.6325 24.1534C87.5988 24.2017 86.7294 24.2935 86.0243 24.4287C85.3191 24.5543 84.754 24.7185 84.3289 24.9214C83.9039 25.1242 83.5996 25.3609 83.4161 25.6314C83.2325 25.9019 83.1408 26.1965 83.1408 26.5153C83.1408 27.1432 83.3243 27.5924 83.6914 27.8628C84.0681 28.1333 84.556 28.2686 85.1549 28.2686C85.889 28.2686 86.5218 28.1381 87.0531 27.8773C87.594 27.6068 88.1205 27.2011 88.6325 26.6602V24.1534ZM80.4312 17.7054C82.141 16.1405 84.1985 15.358 86.6039 15.358C87.4733 15.358 88.2509 15.5029 88.9367 15.7927C89.6226 16.0729 90.2022 16.4689 90.6755 16.9809C91.1489 17.4832 91.5063 18.087 91.7478 18.7922C91.9989 19.4973 92.1245 20.2701 92.1245 21.1105V30.5H90.5016C90.1636 30.5 89.9027 30.4517 89.7192 30.3551C89.5357 30.2488 89.3908 30.0412 89.2845 29.732L88.9657 28.6598C88.589 28.9979 88.2219 29.2973 87.8645 29.5582C87.5071 29.8093 87.1352 30.0218 86.7488 30.1957C86.3624 30.3696 85.947 30.5 85.5026 30.5869C85.0679 30.6835 84.5849 30.7318 84.0536 30.7318C83.4257 30.7318 82.8461 30.6497 82.3149 30.4855C81.7836 30.3116 81.3247 30.0556 80.9383 29.7175C80.5519 29.3794 80.2525 28.9592 80.0399 28.4569C79.8274 27.9546 79.7212 27.3702 79.7212 26.7036C79.7212 26.3269 79.7839 25.955 79.9095 25.5879C80.0351 25.2112 80.238 24.8538 80.5181 24.5157C80.8079 24.1776 81.1798 23.8588 81.6338 23.5593C82.0878 23.2599 82.6433 22.9991 83.3002 22.7769C83.9667 22.5547 84.7395 22.376 85.6186 22.2408C86.4976 22.0959 87.5022 22.0089 88.6325 21.9799V21.1105C88.6325 20.1156 88.4199 19.3814 87.9949 18.9081C87.5699 18.4251 86.9565 18.1836 86.1547 18.1836C85.5751 18.1836 85.0921 18.2512 84.7057 18.3864C84.3289 18.5217 83.9957 18.6762 83.7059 18.8501C83.4161 19.0143 83.1504 19.1641 82.9089 19.2993C82.6771 19.4345 82.4163 19.5022 82.1265 19.5022C81.8753 19.5022 81.6628 19.4394 81.4889 19.3138C81.315 19.1786 81.175 19.024 81.0687 18.8501L80.4312 17.7054ZM99.1177 8.968V30.5H95.5387V8.968H99.1177ZM106.263 8.968V21.2989H106.929C107.171 21.2989 107.359 21.2699 107.494 21.212C107.639 21.1443 107.784 21.0139 107.929 20.8207L111.624 16.2564C111.778 16.0536 111.947 15.899 112.131 15.7927C112.324 15.6865 112.571 15.6334 112.87 15.6334H116.145L111.522 21.154C111.194 21.5887 110.837 21.922 110.45 22.1538C110.653 22.2987 110.832 22.4678 110.986 22.661C111.151 22.8542 111.305 23.0618 111.45 23.284L116.406 30.5H113.174C112.894 30.5 112.653 30.4565 112.45 30.3696C112.247 30.273 112.078 30.1039 111.943 29.8624L108.146 24.2259C108.011 24.0037 107.871 23.8588 107.726 23.7912C107.581 23.7236 107.364 23.6897 107.074 23.6897H106.263V30.5H102.684V8.968H106.263ZM122.641 12.6484V18.8501H130.495V21.9654H122.641V30.5H118.729V9.54759H131.944V12.6484H122.641ZM138.259 15.6334V30.5H134.666V15.6334H138.259ZM138.752 11.3009C138.752 11.61 138.689 11.8998 138.564 12.1703C138.438 12.4407 138.269 12.6774 138.057 12.8803C137.854 13.0831 137.612 13.2473 137.332 13.3729C137.052 13.4888 136.753 13.5468 136.434 13.5468C136.125 13.5468 135.83 13.4888 135.55 13.3729C135.279 13.2473 135.043 13.0831 134.84 12.8803C134.637 12.6774 134.473 12.4407 134.347 12.1703C134.231 11.8998 134.173 11.61 134.173 11.3009C134.173 10.9821 134.231 10.6826 134.347 10.4025C134.473 10.1224 134.637 9.88086 134.84 9.678C135.043 9.47514 135.279 9.31575 135.55 9.19984C135.83 9.07426 136.125 9.01147 136.434 9.01147C136.753 9.01147 137.052 9.07426 137.332 9.19984C137.612 9.31575 137.854 9.47514 138.057 9.678C138.269 9.88086 138.438 10.1224 138.564 10.4025C138.689 10.6826 138.752 10.9821 138.752 11.3009ZM146.864 30.7318C145.569 30.7318 144.574 30.3696 143.879 29.6451C143.193 28.9109 142.85 27.9015 142.85 26.6167V18.314H141.329C141.135 18.314 140.971 18.2512 140.836 18.1256C140.701 18 140.633 17.8117 140.633 17.5605V16.1405L143.024 15.7493L143.777 11.6921C143.826 11.4989 143.917 11.3492 144.053 11.2429C144.188 11.1367 144.362 11.0835 144.574 11.0835H146.429V15.7638H150.399V18.314H146.429V26.3704C146.429 26.8341 146.54 27.1963 146.762 27.4571C146.994 27.7179 147.308 27.8483 147.704 27.8483C147.926 27.8483 148.11 27.8242 148.255 27.7759C148.409 27.7179 148.54 27.66 148.646 27.602C148.762 27.5441 148.863 27.4909 148.95 27.4426C149.037 27.3847 149.124 27.3557 149.211 27.3557C149.317 27.3557 149.404 27.3847 149.472 27.4426C149.54 27.4909 149.612 27.5682 149.689 27.6745L150.762 29.4133C150.24 29.848 149.641 30.1764 148.965 30.3986C148.289 30.6207 147.588 30.7318 146.864 30.7318Z" fill="#4E4E4E"/>
<defs>
<linearGradient id="paint0_linear_1994_17612" x1="19.0809" y1="5.82715" x2="16.0283" y2="31.48" gradientUnits="userSpaceOnUse">
<stop stop-color="#F7C33D"/>
<stop offset="0.833333" stop-color="#F83131"/>
</linearGradient>
</defs>
</svg>
