<svg viewBox="0 0 1320 114" xmlns="http://www.w3.org/2000/svg" fill="none"><g fill="#261622" clip-path="url(#a)"><path d="M693.044 68.038c0 7.18-1.78 13.584-5.342 19.204-3.561 5.63-8.618 10.372-15.161 14.265-6.542 3.883-14.476 6.845-23.779 8.885-9.303 2.031-19.723 3.046-31.26 3.046a219.38 219.38 0 0 1-15.973-.607 256.786 256.786 0 0 1-16.341-1.696 239.061 239.061 0 0 1-14.919-2.49c-4.635-.942-8.544-1.978-11.726-3.088V79.362c3.445 1.454 7.291 2.804 11.526 4.102 4.236 1.287 8.829 2.418 13.792 3.412 4.962.994 10.283 1.78 15.972 2.323 5.69.566 11.716.848 18.08.848 5.995 0 11.252-.345 15.814-1.046 4.562-.702 8.513-1.644 11.853-2.805 3.34-1.183 6.005-2.7 8.334-4.061 10.399-7.347 9.113-12.015 9.113-23.83-5.921 3.788-19.354 13.825-45.673 13.825-11.263 0-20.671-1.089-28.183-3.255-7.523-2.166-13.549-5.306-18.08-9.409-4.53-4.102-7.754-9.094-9.672-14.986-1.917-5.903-2.865-12.538-2.865-19.927V.053h30.174v21.549c0 29.345 26.646 27.012 39.478 27.012 25.371 0 34.79-12.643 34.79-26.531V.053h30.09v67.995h-.042v-.01ZM955.752 0h-32.925c-21.598 32.737-43.829 73.825-57.905 110.465h33.335c2.929-6.928 6.08-13.877 9.409-20.858h63.279a490.12 490.12 0 0 1 9.408 20.858h33.337C999.602 73.825 977.361 32.737 955.783 0h-.031Zm-37.403 68.048c6.859-13.354 14.013-26.73 20.925-40.052 6.911 13.333 14.076 26.719 20.945 40.052h-41.87ZM1289.58 110.465c-.53-5.997-1.98-11.26-4.35-15.793-2.36-4.531-5.33-8.424-8.89-11.7-3.57-3.265-7.6-5.965-12.07-8.121a81.053 81.053 0 0 0-13.82-5.108 94.178 94.178 0 0 0-14.12-2.647c-4.7-.513-9.06-.764-13.09-.764h-8.86v44.133h-29.88V0h29.88v42.606h6.11c4.13 0 8.45-.325 12.97-.963a85.083 85.083 0 0 0 13.41-3.056 72.96 72.96 0 0 0 12.76-5.39 48.005 48.005 0 0 0 10.95-8.038c3.22-3.16 5.91-6.813 8.06-10.967 2.14-4.155 3.49-8.886 4.02-14.182h30.43c-.54 5.85-1.71 11.115-3.5 15.835-1.8 4.72-4.02 8.938-6.68 12.664-2.65 3.725-5.62 6.98-8.89 9.774-3.28 2.784-6.63 5.191-10.07 7.19-3.44 2-6.86 3.674-10.26 4.992-3.42 1.32-6.59 2.324-9.55 3.015 3.75.596 7.66 1.517 11.71 2.773a73.926 73.926 0 0 1 12.04 4.992c3.97 2.072 7.76 4.595 11.39 7.598 3.62 2.993 6.89 6.51 9.8 10.529 2.89 4.019 5.32 8.603 7.23 13.752 1.94 5.149 3.18 10.926 3.71 17.373h-30.42.01l-.03-.032ZM216.133.053c-6.785 36.337-24.801 78.44-45.125 110.371h-33.683c-8.26-24.364-19.017-49.356-29.258-74.108C97.815 61.09 87.058 86.06 78.798 110.424H45.115C24.8 78.482 6.785 36.4 0 .053h31.47c6.29 25.232 15.805 53.752 28.848 76.745C69.4 51.168 80.768 25.285 91.241.053h33.673c10.462 25.232 21.83 51.114 30.912 76.745 13.033-23.004 22.547-51.513 28.837-76.745h31.47ZM806.922 24.072v86.352H776.81V24.071h-47.306V.053h124.808V24.07h-47.39ZM1072.21 63.182c0 4.605.43 8.372 1.28 11.282.86 2.92 2.24 5.243 4.17 6.949 1.92 1.716 4.41 2.888 7.48 3.537 3.06.65 6.83.963 11.32.963h55.64v24.5h-61.72c-8.65 0-16-.711-22.05-2.124-6.07-1.424-11.01-3.611-14.85-6.583-3.85-2.972-6.63-6.73-8.37-11.282-1.74-4.553-2.6-9.953-2.6-16.232V.052h29.71v63.14h-.03l.02-.01ZM313.121.053h-33.347c-21.872 32.705-44.398 73.762-58.653 110.371h33.768c2.96-6.918 6.153-13.867 9.524-20.837h64.1c3.372 6.96 6.564 13.898 9.525 20.837h33.767C357.519 73.825 335.004 32.758 313.121.053Zm-37.877 67.985c6.954-13.344 14.202-26.709 21.198-40.021 6.996 13.323 14.255 26.688 21.209 40.02h-42.407ZM525.866.053c-13.749 36.609-32.808 73.207-57.325 110.371h-36.023C408.012 73.26 388.974 36.651 375.203.053h34.147c8.492 24.772 25.981 59.32 41.185 83.034C465.749 59.383 483.238 24.825 491.73.053h34.147-.011Z"></path></g><defs><clipPath id="a"><path d="M0 0h1320v113.437H0z" fill="#fff"></path></clipPath></defs></svg>